<svg viewBox="0 0 24 24" xmlns="http://www.w3.org/2000/svg">
<path d="M19.088 4.955C19.081 4.947 19.078 4.936 19.071 4.929C19.064 4.922 19.053 4.919 19.045 4.911C17.1745 3.04643 14.6411 1.99942 12 1.99942C9.3589 1.99942 6.82551 3.04643 4.955 4.911C4.947 4.919 4.937 4.921 4.929 4.929C4.921 4.937 4.919 4.947 4.912 4.955C3.51828 6.35543 2.57063 8.13733 2.18866 10.0758C1.80669 12.0143 2.00752 14.0225 2.7658 15.847C3.52409 17.6715 4.80584 19.2304 6.44929 20.3271C8.09274 21.4238 10.0242 22.0091 12 22.0091C13.9758 22.0091 15.9073 21.4238 17.5507 20.3271C19.1942 19.2304 20.4759 17.6715 21.2342 15.847C21.9925 14.0225 22.1933 12.0143 21.8113 10.0758C21.4294 8.13733 20.4817 6.35543 19.088 4.955ZM12 20C10.8023 19.9996 9.61998 19.7297 8.54068 19.2104C7.46139 18.6911 6.51274 17.9357 5.765 17H9.78C10.0581 17.3144 10.3999 17.5661 10.7826 17.7385C11.1653 17.9109 11.5802 18.0001 12 18.0001C12.4198 18.0001 12.8347 17.9109 13.2174 17.7385C13.6002 17.5661 13.9419 17.3144 14.22 17H18.235C17.4873 17.9357 16.5386 18.6911 15.4593 19.2104C14.38 19.7297 13.1977 19.9996 12 20V20ZM11 15C11 14.8022 11.0587 14.6089 11.1685 14.4444C11.2784 14.28 11.4346 14.1518 11.6173 14.0761C11.8 14.0004 12.0011 13.9806 12.1951 14.0192C12.3891 14.0578 12.5673 14.153 12.7071 14.2929C12.847 14.4327 12.9422 14.6109 12.9808 14.8049C13.0194 14.9989 12.9996 15.2 12.9239 15.3827C12.8482 15.5654 12.72 15.7216 12.5556 15.8315C12.3911 15.9414 12.1978 16 12 16C11.7349 15.9997 11.4807 15.8943 11.2932 15.7068C11.1057 15.5193 11.0003 15.2651 11 15V15ZM19.41 15.002L19.4 15H15C14.9982 14.3816 14.8049 13.7789 14.4468 13.2747C14.0887 12.7704 13.5833 12.3895 13 12.184V9C13 8.73478 12.8946 8.48043 12.7071 8.29289C12.5196 8.10536 12.2652 8 12 8C11.7348 8 11.4804 8.10536 11.2929 8.29289C11.1054 8.48043 11 8.73478 11 9V12.184C10.4167 12.3895 9.91128 12.7704 9.55318 13.2747C9.19508 13.7789 9.00184 14.3816 9 15H4.6L4.59 15.002C4.33001 14.3602 4.15519 13.6872 4.07 13H5C5.26522 13 5.51957 12.8946 5.70711 12.7071C5.89465 12.5196 6 12.2652 6 12C6 11.7348 5.89465 11.4804 5.70711 11.2929C5.51957 11.1054 5.26522 11 5 11H4.07C4.24864 9.57854 4.80801 8.23175 5.689 7.102L6.343 7.757C6.43525 7.85251 6.5456 7.92869 6.6676 7.9811C6.7896 8.03351 6.92082 8.0611 7.0536 8.06225C7.18638 8.0634 7.31806 8.0381 7.44096 7.98782C7.56386 7.93754 7.67551 7.86329 7.7694 7.7694C7.86329 7.6755 7.93755 7.56385 7.98783 7.44096C8.03811 7.31806 8.06341 7.18638 8.06225 7.0536C8.0611 6.92082 8.03352 6.7896 7.98111 6.6676C7.9287 6.54559 7.85251 6.43525 7.757 6.343L7.103 5.688C8.2326 4.80758 9.579 4.24856 11 4.07V5C11 5.26522 11.1054 5.51957 11.2929 5.70711C11.4804 5.89464 11.7348 6 12 6C12.2652 6 12.5196 5.89464 12.7071 5.70711C12.8946 5.51957 13 5.26522 13 5V4.07C14.421 4.24856 15.7674 4.80758 16.897 5.688L16.243 6.343C16.1475 6.43525 16.0713 6.54559 16.0189 6.6676C15.9665 6.7896 15.9389 6.92082 15.9378 7.0536C15.9366 7.18638 15.9619 7.31806 16.0122 7.44096C16.0625 7.56385 16.1367 7.6755 16.2306 7.7694C16.3245 7.86329 16.4362 7.93754 16.5591 7.98782C16.6819 8.0381 16.8136 8.0634 16.9464 8.06225C17.0792 8.0611 17.2104 8.03351 17.3324 7.9811C17.4544 7.92869 17.5648 7.85251 17.657 7.757L18.311 7.102C19.1924 8.23164 19.7521 9.57844 19.931 11H19C18.7348 11 18.4804 11.1054 18.2929 11.2929C18.1054 11.4804 18 11.7348 18 12C18 12.2652 18.1054 12.5196 18.2929 12.7071C18.4804 12.8946 18.7348 13 19 13H19.93C19.8448 13.6872 19.67 14.3602 19.41 15.002V15.002Z" fill="currentColor"/>
</svg>
